<svg version="1.0" xmlns="http://www.w3.org/2000/svg"
 width="100%" height="100%" viewBox="0 0 218.000000 232.000000"
 preserveAspectRatio="xMidYMid meet">
<g transform="translate(0.000000,232.000000) scale(0.100000,-0.100000)"
fill="#000000" stroke="none">
<path d="M1538 2208 c-10 -7 -25 -40 -33 -73 -66 -252 -361 -534 -719 -687
l-98 -42 -22 26 c-47 57 -67 62 -241 66 -232 6 -290 -11 -334 -95 -8 -15 -11
-174 -11 -531 l0 -509 23 -33 c43 -63 69 -70 280 -70 211 0 238 6 281 62 l26
35 58 -9 c95 -14 161 -36 292 -98 161 -76 250 -93 439 -88 124 3 141 6 187 30
59 31 112 87 120 127 4 17 18 35 36 46 58 34 114 151 122 258 3 32 12 56 31
79 34 40 59 96 74 166 14 68 13 108 -3 154 -12 34 -11 41 18 99 28 57 31 72
31 159 0 77 -4 101 -20 129 -44 75 -92 90 -277 91 -71 0 -128 1 -128 3 0 2 18
39 40 84 59 122 92 227 97 318 6 92 -5 142 -45 205 -46 73 -180 132 -224 98z
m117 -129 c97 -85 63 -278 -103 -577 -33 -59 -32 -89 5 -103 13 -5 112 -9 219
-9 l195 0 16 -37 c33 -79 -6 -220 -66 -241 -50 -17 -50 -81 0 -97 32 -10 41
-48 28 -120 -13 -77 -44 -130 -89 -153 -39 -19 -48 -43 -30 -78 34 -62 -30
-214 -94 -225 -22 -5 -30 -18 -46 -77 -8 -33 -20 -49 -52 -70 -41 -27 -44 -27
-197 -27 -178 1 -221 10 -360 79 -99 50 -189 80 -281 96 -36 6 -75 13 -88 16
l-22 4 2 421 3 422 75 28 c357 137 671 403 796 675 19 40 34 80 34 88 0 24 15
19 55 -15z m-1077 -701 c9 -9 12 -134 12 -499 0 -430 -2 -489 -16 -503 -24
-24 -349 -23 -376 1 -17 15 -18 44 -18 503 0 365 3 489 12 498 8 8 66 12 193
12 127 0 185 -4 193 -12z"/>
</g></svg>
